# xmcd
#
# Track frame offsets: 
#        150
#        23371
#        34332
#        46458
#        65254
#        74275
#        85202
#        97686
#        126853
#        146578
#        162830
#        181808
#        203821
#        215137
#
# Disc length: 3064 seconds
#
# Revision: 0
# Processed by: cddbd v1.5.2PL0 Copyright (c) Steve Scherf et al.
# Submitted via: ExactAudioCopy v0.99pb5
#
DISCID=bd0bf60e
DTITLE=Meshiya Lake and Tom McDermott - Live at Chickie Wah Wah
DYEAR=2012
DGENRE=
TTITLE0=Maple Leaf Rag (Joplin)
TTITLE1=Hey Good Lookin' (Williams)
TTITLE2=I Wonder Who's Kissing Her Now (Howard/Orlob)
TTITLE3=Closer Walk (Trad)
TTITLE4=Marie (Berlin)
TTITLE5=I Like em' Fat Like That (Jordan)
TTITLE6=No Me Toques (Cervantes)
TTITLE7=Backwater Blues (Smith)
TTITLE8=I Got it Bad and That Ain't Good (Ellington)
TTITLE9=Proezas Do Solon (Pixinguinha)
TTITLE10=Gloomy Sunday (Seress)
TTITLE11=Cupid (Cookie)
TTITLE12=I Get the Blues When it Rains (Stoddard)
TTITLE13=I'm Gonna Live the Life I Sing About in My Songs (Trad)
EXTD=
EXTT0=
EXTT1=
EXTT2=
EXTT3=
EXTT4=
EXTT5=
EXTT6=
EXTT7=
EXTT8=
EXTT9=
EXTT10=
EXTT11=
EXTT12=
EXTT13=
PLAYORDER=
